<?xml version="1.0" encoding="UTF-8" standalone="no"?>
<svg version="1.1" width="1282" height="172" viewBox="0 0 1282 172" xmlns="http://www.w3.org/2000/svg" xmlns:svg="http://www.w3.org/2000/svg">
  <g fill="#3195d9">
    <path
      d="m 838.04697,168.55 c -1.23406,-1.3136 -4.53369,-3.37347 -7.33251,-4.57749 -5.89647,-2.53659 -13.15033,-2.39815 -18.67187,0.35636 -4.63481,2.31215 -5.91013,0.8109 -3.13105,-3.68574 8.93357,-14.45482 28.12022,-18.54306 42.28602,-9.01018 5.86247,3.94515 8.7819,3.9023 10.631,-0.15603 1.74327,-3.82606 1.46513,-5.96663 -1.72937,-13.30931 -1.59545,-3.66718 -3.05795,-7.48049 -3.25,-8.47402 -0.29358,-1.5187 -1.62223,-0.91927 -8.3423,3.7637 -4.39621,3.06356 -8.45287,5.39368 -9.0148,5.17805 -0.56193,-0.21563 -6.30253,-4.08487 -12.75689,-8.59831 L 815,121.83077 V 97.112838 72.394903 l 19.16338,-10.947451 c 10.53986,-6.021099 19.42736,-11.056645 19.75,-11.190103 0.32264,-0.133458 5.72139,3.560936 11.99721,8.209765 6.27583,4.648829 11.90083,8.178577 12.5,7.843885 0.59918,-0.334693 2.07901,-1.498518 3.28853,-2.586279 C 883.77294,61.859658 887,61.906248 887,63.80125 c 0,0.475211 -1.83225,2.336458 -4.07167,4.136105 l -4.07167,3.272085 0.32167,26.645279 c 0.30366,25.153641 0.44763,26.918311 2.57167,31.522401 3.94737,8.55636 2.98908,11.76596 -4.97631,16.66711 -2.89205,1.7795 -11.78675,7.81619 -19.76599,13.41487 -7.97923,5.59867 -15.00479,10.47187 -15.61234,10.82933 -0.60755,0.35746 -2.11433,-0.42483 -3.34839,-1.73843 z M 856,101.04887 V 78.097744 l -9.25,-6.390186 c -5.0875,-3.514602 -9.8125,-6.713152 -10.5,-7.107889 -0.98544,-0.565805 -1.24364,4.321364 -1.21993,23.091314 l 0.0301,23.809017 9.71993,6.22158 c 5.34596,3.42187 10.05743,6.23437 10.46993,6.25 0.4125,0.0156 0.75,-10.29959 0.75,-22.92271 z m -552.09272,52.62436 c -11.66652,-6.15921 -14.49628,-21.55354 -5.63479,-30.65417 4.40132,-4.52009 9.09502,-6.33143 16.32405,-6.29957 5.11388,0.0225 8.53921,1.01439 21.25132,6.15369 8.33513,3.36975 15.98444,6.12682 16.99847,6.12682 1.01403,0 2.70094,-0.94646 3.74868,-2.10325 1.79851,-1.98569 1.93294,-4.6547 2.40499,-47.75 0.49279,-44.988225 0.53317,-45.718883 2.79935,-50.64675 3.0307,-6.59034 7.82882,-11.439517 18.3977,-18.5934544 8.99405,-6.0879611 11.73488,-6.3314532 7.45653,-0.6624305 -4.33581,5.7451629 -4.64211,9.0632089 -4.648,50.3490559 L 383,98.686342 l -5.1857,7.384168 c -10.59552,15.08748 -31.3689,34.15956 -38.73674,35.56427 -1.88234,0.35887 -9.67688,-0.1179 -17.3212,-1.05949 -12.73165,-1.56823 -14.10273,-1.57836 -16.32757,-0.12059 -3.54789,2.32467 -3.43502,8.60864 0.20607,11.47272 1.44917,1.13992 3.24917,2.07258 4,2.07258 0.75083,0 1.36514,0.45 1.36514,1 0,1.60914 -2.37212,1.16541 -7.09272,-1.32677 z M 416.72775,134.09988 406.97501,126.5 409.98751,123.92717 413,121.35435 V 97.162489 72.97063 l -3.27157,-3.569904 -3.27158,-3.569904 -3.18504,1.827967 c -2.28408,1.31088 -3.49109,1.521929 -4.26694,0.746083 -0.77584,-0.775846 2.22433,-3.374171 10.60599,-9.185401 l 11.68787,-8.103518 4.20071,4.692024 c 2.31039,2.580612 5.3169,5.998651 6.68115,7.59564 l 2.48043,2.903617 9.62507,-7.6626 9.62507,-7.6626 8.29442,7.201897 c 4.56193,3.961043 9.02535,7.808635 9.91871,8.550203 1.39623,1.159001 2.06521,0.977289 4.76477,-1.294236 C 479.76289,63.021726 483,62.683419 483,64.801251 c 0,0.475211 -1.8,2.310539 -4,4.078508 l -4,3.214487 0.018,23.202877 0.018,23.202877 4.06532,3.37644 4.06532,3.37644 3.02264,-2.23474 c 2.77726,-2.05331 3.15321,-2.10417 4.63094,-0.62644 2.026,2.026 2.09787,1.95723 -12.39563,11.86038 l -11.07537,7.56759 -8.42463,-7.80626 -8.42464,-7.80627 2.75,-2.90829 2.75,-2.90829 V 98.898229 77.405896 l -3.75,-3.474372 c -2.0625,-1.910904 -4.96404,-4.533628 -6.44786,-5.828276 l -2.69785,-2.353903 -4.05215,3.209357 -4.05214,3.209357 v 24.123808 24.123803 l 3.50876,3.5933 3.50876,3.59329 -7.76851,7.04875 -7.76851,7.04874 -9.75275,-7.59987 z m 616.00425,-0.1135 -8.5554,-7.78143 2.9117,-2.78956 2.9117,-2.78957 V 98.897471 77.169124 l -6.5313,-5.734131 -6.5312,-5.734132 -3.7188,3.009023 -3.7187,3.009023 -0.2682,24.329737 -0.2682,24.329736 3.5075,3.59201 3.5075,3.592 -7.5225,6.81307 c -4.5674,4.13666 -8.0885,6.59586 -8.96332,6.26014 -0.79248,-0.3041 -5.28769,-3.60902 -9.98935,-7.34426 L 980.95496,126.5 983.97748,123.92717 987,121.35435 V 97.343784 73.33322 l -3.33056,-3.852889 -3.33056,-3.85289 -3.55766,2.198757 c -2.9778,1.84038 -3.65015,1.957753 -4.12507,0.720116 -0.39889,-1.039477 2.86102,-3.839105 10.97594,-9.426197 l 11.54336,-7.947557 5.03905,5.66372 c 9.513,10.692428 7.5193,10.31367 16.4486,3.124831 4.3103,-3.470197 8.5585,-6.91622 9.4406,-7.657831 1.3974,-1.175025 2.684,-0.413371 10.0066,5.924169 12.7016,10.992982 11.1992,10.31768 15.1796,6.822916 3.045,-2.673627 3.6238,-2.859289 4.7359,-1.519297 1.0686,1.287569 0.6178,2.082128 -2.8795,5.075658 L 1049,72.155846 v 23.254713 23.254711 l 4.0913,3.28789 4.0914,3.28789 3.0146,-2.22882 c 2.7699,-2.04788 3.1452,-2.09826 4.623,-0.62053 2.0319,2.03192 2.0663,1.9991 -12.4266,11.83705 l -11.1063,7.53905 z M 1,140.46016 c 0,-0.29691 0.8676552,-2.24058 1.9281227,-4.31927 3.2204509,-6.3126 9.4562793,-13.47326 14.9377763,-17.15318 4.502002,-3.02235 6.458697,-5.57592 14.664647,-19.138003 C 37.738746,91.242046 42,83.806878 42,83.327111 42,82.847344 40.409102,81.598053 38.464672,80.550908 33.420115,77.834235 27.254813,70.776094 24.160407,64.175146 21.834259,59.213037 21.5,57.240613 21.5,48.476391 21.5,39.125844 21.725038,37.995839 24.851393,31.647718 29.035546,23.15172 36.797869,15.358517 45.191062,11.227136 53.304204,7.2336046 58.610717,6.0518622 68.5,6.0363149 c 9.386615,-0.014757 16.735928,1.7374118 24.894826,5.9352411 6.5578,3.374049 6.081986,3.48999 13.192464,-3.214612 3.57017,-3.3663843 4.24777,-3.6606059 5.35578,-2.3255366 1.05353,1.2694204 0.83364,2.0452426 -1.29749,4.5779556 -1.4113,1.677231 -2.9214,4.723764 -3.35579,6.770074 C 106.85541,19.825747 106.5,41.075 106.5,65 c 0,46.54024 0.13586,47.97081 5.05995,53.28123 l 2.56486,2.76609 2.99133,-2.13002 c 2.86443,-2.03965 3.0739,-2.05529 4.9376,-0.36867 C 123.12418,119.51737 124,120.6484 124,121.06203 124,122.01799 103.12807,139 101.95314,139 c -1.44843,0 -12.161272,-8.84046 -16.643976,-13.73495 l -4.190836,-4.57581 -9.809164,8.472 -9.809164,8.472 -4,-2.74802 C 43.41517,125.20888 22.510886,125.89661 8.0926855,136.51069 2.0981484,140.92361 1,141.5351 1,140.46016 Z M 79.35921,112.91501 84,108.83003 V 100.41501 92 l -21.25,0.02044 -21.25,0.02044 -5.699403,9.696829 c -3.134672,5.33325 -5.579868,9.81636 -5.433768,9.96246 0.146099,0.1461 1.81083,-0.19619 3.699403,-0.76064 5.997787,-1.79261 19.758957,-1.30762 26.947998,0.94973 3.582827,1.12501 7.407827,2.72084 8.5,3.5463 3.0864,2.3327 4.842065,1.88321 9.84498,-2.52054 z M 60.346356,52.47079 C 69.50586,37.329725 77,24.788207 77,24.600751 77,23.561072 66.731991,21.638867 61.443995,21.688615 52.777724,21.770145 45.984896,24.308973 39.974446,29.712884 32.257044,36.651492 29.606749,42.570799 29.547935,53 c -0.04033,7.151759 0.365954,9.372391 2.561431,14 2.428306,5.118364 8.96711,13 10.785128,13 0.43902,0 8.292358,-12.388144 17.451862,-27.52921 z M 83.768099,50.25 C 83.546246,30.596821 83.25658,26.5 82.08885,26.5 80.995742,26.5 53,71.822308 53,73.59194 53,73.816373 59.983144,74 68.518099,74 H 84.036197 Z M 584.0947,131.33328 C 577.27178,126.19997 571.27925,122 570.77797,122 c -0.50128,0 -2.45745,1.17922 -4.34705,2.62049 -2.82911,2.15787 -3.70194,2.39948 -4.94408,1.36859 -1.30034,-1.07919 -0.95512,-1.67718 2.50236,-4.33449 L 568,118.572 V 95.334942 72.097882 l 6.25,-3.418378 c 3.4375,-1.880108 12.86116,-6.863819 20.94148,-11.074913 l 14.69147,-7.656535 8.61729,13.167213 c 4.7395,7.241966 8.24556,13.538935 7.79123,13.993264 -0.45433,0.454328 -8.91827,5.90327 -18.80876,12.108759 L 589.5,100.5 l -0.27373,4 -0.27373,4 10.96596,7.40016 10.96596,7.40017 7.60732,-5.90017 c 11.79461,-9.14779 11.51984,-8.98797 12.59655,-7.32655 1.06112,1.63738 1.19106,1.51571 -20.08833,18.80907 l -14.5,11.78387 z M 599.75,90.295288 C 604.2875,87.376396 608,84.745958 608,84.449871 608,83.427615 592.84778,62 592.1249,62 589.52127,62 589,65.129239 589,80.759017 c 0,12.824726 0.27006,16.19529 1.25,15.601182 0.6875,-0.41681 4.9625,-3.14602 9.5,-6.064911 z m 317.64855,41.464682 c -6.5442,-4.9265 -12.46564,-9.18778 -13.15876,-9.46952 -0.69311,-0.28174 -2.87232,0.71736 -4.84269,2.22024 -3.09488,2.36058 -3.77578,2.5392 -5.00261,1.31237 -1.22683,-1.22683 -0.87716,-1.82185 2.56906,-4.37159 l 3.98917,-2.95147 0.0436,-23.5 0.0436,-23.5 20.88251,-10.748084 20.88251,-10.748083 7.25364,11.248083 c 3.9895,6.186446 7.88187,12.217427 8.6497,13.402179 1.34966,2.082503 0.76343,2.547794 -17.63888,14 L 922.03447,100.5 l -0.0172,4.09749 c -0.0172,4.08622 0.0109,4.11646 10.23277,11 5.6375,3.79638 10.59768,7.0559 11.02262,7.24338 0.42494,0.18748 4.81229,-2.85002 9.74967,-6.75 4.93738,-3.89998 9.37905,-7.09087 9.87039,-7.09087 0.49134,0 1.12945,0.61528 1.41802,1.3673 0.33659,0.87712 -5.84551,6.5624 -17.24446,15.85861 l -17.76914,14.49132 -11.89855,-8.95726 z M 936.51466,88.447473 C 939.5316,86.517562 942,84.756288 942,84.533532 942,84.076351 928.21408,63.928917 927.07215,62.717217 926.66641,62.286687 925.58419,62.222332 924.66722,62.574206 923.2019,63.1365 923,65.261271 923,80.119533 v 16.905556 l 4.01466,-2.534342 c 2.20806,-1.393889 6.48306,-4.113362 9.5,-6.043274 z m 220.43484,42.921267 c -6.8472,-5.11439 -12.857,-9.31461 -13.3551,-9.33381 -0.4981,-0.0192 -2.4523,1.14479 -4.3427,2.58666 -2.9693,2.26477 -3.6304,2.4283 -4.8572,1.20147 -1.2268,-1.22683 -0.8772,-1.82185 2.569,-4.37159 l 3.9892,-2.95147 0.044,-23.5 0.044,-23.5 20.8806,-10.747104 20.8806,-10.747105 7.9223,12.247105 c 4.3573,6.735907 8.2334,12.777075 8.6138,13.424817 0.4496,0.765679 -5.9548,5.313854 -18.3056,13 L 1162.0345,100.5 l -0.017,4.09749 c -0.017,4.08622 0.011,4.11646 10.2328,11 5.6375,3.79638 10.5977,7.0559 11.0226,7.24338 0.425,0.18748 4.8123,-2.85002 9.7497,-6.75 4.9374,-3.89998 9.379,-7.09087 9.8704,-7.09087 0.4913,0 1.1308,0.61894 1.4211,1.37541 0.3406,0.88766 -5.7566,6.50271 -17.1935,15.83381 l -17.7212,14.4584 -12.4496,-9.29888 z m 18.5938,-42.939616 c 3.4806,-2.226516 5.2584,-3.970148 4.8209,-4.728202 C 1179.0093,81.353626 1165.6893,62 1165.4287,62 c -0.1458,0 -0.9769,0.273145 -1.8469,0.606989 -1.3561,0.520372 -1.5818,3.019379 -1.5818,17.512544 v 16.905556 l 4.0147,-2.534342 c 2.208,-1.393889 6.4959,-4.121619 9.5286,-6.061623 z m -1023.46425,43.711136 -9.40424,-7.49018 -2.99402,1.71834 c -1.91444,1.09873 -3.34046,1.37191 -3.95476,0.75761 -0.61431,-0.61431 0.88449,-2.2864 4.15662,-4.63719 L 145,118.81239 V 94.98292 71.153451 l -2.69979,-3.326726 c -1.48489,-1.829699 -2.81122,-3.490555 -2.94741,-3.690793 -0.13618,-0.200237 -1.77724,0.581299 -3.64679,1.736746 C 132.56292,67.815213 131,67.818921 131,65.883844 c 0,-0.430553 4.94274,-4.138707 10.98387,-8.240343 l 10.98387,-7.457521 6.52995,6.65701 6.52996,6.65701 6.32775,-6.947195 6.32776,-6.947195 2.79328,2.197195 c 3.489,2.744447 8.45264,2.827422 11.79643,0.197195 1.39842,-1.1 3.52366,-2 4.72276,-2 2.00445,0 2.12559,0.342534 1.50303,4.25 -1.11718,7.011895 -4.98896,14.468854 -8.68132,16.720006 -5.81007,3.542283 -16.44165,1.80238 -20.75668,-3.396918 C 169.34261,66.70789 168.36021,66 167.87756,66 167.3949,66 167,77.762891 167,92.139757 c 0,28.496843 -0.44394,26.161593 5.80697,30.546593 2.19321,1.53853 2.5228,1.46621 6.68354,-1.46655 3.77913,-2.66378 4.54366,-2.88355 5.60065,-1.60996 1.47094,1.77238 2.21709,1.05885 -12.09952,11.57069 l -11.50836,8.44991 z M 220.19436,129.98348 207,120.92987 207.02229,94.714933 207.04459,68.5 224.53183,58.699974 c 15.25846,-8.550996 17.71404,-9.634335 19.26675,-8.5 C 249.10061,54.073381 259,62.456833 259,63.073526 c 0,0.393052 -3.34976,3.28035 -7.44391,6.416217 l -7.44391,5.701576 -7.24165,-6.095659 C 232.88763,65.743047 229.26239,63 228.81444,63 228.3665,63 228,73.209654 228,85.68812 c 0,21.76456 0.0899,22.81936 2.20916,25.91219 2.97051,4.33517 9.1246,8.17724 14.35415,8.96146 3.87079,0.58045 4.75095,0.28989 9.0384,-2.98382 3.55317,-2.71305 4.95621,-3.30578 5.56839,-2.35243 0.51272,0.79846 0.11142,1.86392 -1.07441,2.85263 -1.04104,0.86798 -6.69399,5.81798 -12.5621,11 -5.86811,5.18202 -11.0013,9.5427 -11.40709,9.6904 -0.40578,0.1477 -6.67525,-3.80558 -13.93214,-8.78507 z m 548.27845,2.05534 C 764.13744,128.16747 760.06259,125 759.4176,125 c -0.64499,0 -1.73291,0.675 -2.4176,1.5 -0.68469,0.825 -1.86479,1.5 -2.62244,1.5 -2.81919,0 -1.22145,-2.60376 3.62437,-5.90651 L 763,118.68699 V 95.237398 71.787809 l -3.11058,-3.927434 -3.11059,-3.927433 -3.32601,1.962393 c -2.65741,1.567911 -3.53905,1.705696 -4.38579,0.685426 -0.81264,-0.97917 1.60769,-3.053535 10.37855,-8.895 l 11.43833,-7.618034 6.55805,7.862682 L 784,65.793091 v 26.305847 26.305852 l 3.12789,3.22716 3.12789,3.22716 3.92109,-2.59486 c 3.4372,-2.27462 4.10123,-2.41472 5.38071,-1.13524 1.27948,1.27948 0.0968,2.41605 -9.58314,9.20979 -6.07352,4.2626 -11.62244,7.97263 -12.33095,8.24451 -0.7085,0.27188 -4.83531,-2.67314 -9.17068,-6.54449 z m 317.76089,-2.1762 -13.2664,-9.13476 0.2664,-26.094309 0.2663,-26.094306 17.3491,-9.767419 c 9.5419,-5.372081 17.8669,-9.465772 18.5,-9.097092 0.633,0.36868 4.6428,3.560207 8.9107,7.092282 l 7.7599,6.421955 -7.65,5.911694 c -6.4465,4.981772 -7.9031,5.717919 -9.2598,4.679829 -0.8854,-0.677525 -4.146,-3.380306 -7.2457,-6.006179 C 1098.7645,65.148442 1095.952,63 1095.6142,63 1095.2764,63 1095,73.761756 1095,86.915013 v 23.915017 l 4.4408,3.90897 c 4.1523,3.65496 9.9967,6.261 14.0412,6.261 0.9625,0 3.9133,-1.58795 6.5572,-3.52879 3.2006,-2.34943 5.0405,-3.15124 5.5053,-2.39913 0.384,0.62131 -0.1439,1.94104 -1.1731,2.93274 -4.3329,4.17477 -23.8211,20.99507 -24.3238,20.99387 -0.3012,-7.2e-4 -6.5175,-4.11195 -13.8139,-9.13607 z m 146.4389,1.92016 -8.8274,-7.12256 -3.0128,1.7797 c -1.9928,1.17718 -3.3487,1.44378 -4.005,0.78747 -0.6563,-0.65631 0.8937,-2.30161 4.5783,-4.85981 l 5.5706,-3.86758 0.012,-23.112495 0.012,-23.112496 -3.0867,-3.887504 c -1.6976,-2.138128 -3.2159,-4.018291 -3.3739,-4.17814 -0.1581,-0.159849 -1.8659,0.640732 -3.7952,1.779069 -2.8557,1.684888 -3.6082,1.808299 -4.0474,0.663758 -0.3622,-0.943736 3.1144,-3.911742 10.575,-9.028048 l 11.1145,-7.622102 6.3779,6.988087 6.3779,6.988087 6.0751,-6.989108 C 1256.5584,53.145099 1259.4406,50 1259.6219,50 c 0.1814,0 1.8031,0.898318 3.6039,1.996262 4.1447,2.527036 7.4037,2.527036 11.5484,0 5.45,-3.322859 6.6049,-2.778931 5.8469,2.753738 -0.9097,6.640857 -4.4927,13.326869 -8.6211,16.087627 -4.9847,3.333369 -12.4045,2.671986 -18.5398,-1.652595 L 1249,66.041215 v 26.428501 26.428504 l 3.4998,2.66939 3.4997,2.66939 4.6974,-3.05564 c 4.693,-3.05276 6.3031,-3.23991 6.3031,-0.73266 0,1.41935 -21.4662,17.66627 -23.9965,18.16206 -0.8269,0.16202 -5.4758,-2.91057 -10.3309,-6.82798 z M 517,130.5 c -4.675,-4.10067 -8.95,-7.4514 -9.5,-7.44608 -0.55,0.005 -1.87351,0.67038 -2.94113,1.47788 -2.38465,1.80366 -4.55887,1.89992 -4.55887,0.20183 0,-0.6965 2.475,-2.74673 5.5,-4.55606 l 5.5,-3.28969 -0.0147,-22.693942 c -0.0161,-24.858031 -0.42235,-26.970539 -5.50651,-28.6372 -1.63831,-0.537062 -3.175,-1.115781 -3.41485,-1.286043 -0.64149,-0.45536 28.21655,-29.706743 29.6861,-30.090726 0.94178,-0.246081 1.25,2.280518 1.25,10.246707 L 533,55 h 9.5 c 5.225,0 9.48681,0.3375 9.47069,0.75 -0.0161,0.4125 -1.35978,2.2125 -2.98591,4 -2.75779,3.031471 -3.39459,3.25 -9.47068,3.25 H 533 v 27.791792 27.791788 l 4.44306,4.36053 c 4.43745,4.35504 4.44641,4.35833 7.1069,2.61511 1.90199,-1.24623 2.9717,-1.43756 3.74028,-0.66898 0.59203,0.59203 0.88143,1.25256 0.64309,1.46784 -1.12243,1.01386 -21.71314,11.63924 -22.51776,11.6198 C 525.912,137.96571 521.675,134.60067 517,130.5 Z m 139.56367,-0.14322 -8.7788,-7.69574 -3.42008,1.84184 c -2.29695,1.23699 -3.75092,1.51099 -4.42754,0.83437 -0.67662,-0.67662 0.81022,-2.21435 4.52764,-4.68257 L 650,116.97957 V 74.924044 c 0,-25.010611 -0.38981,-42.783887 -0.96178,-43.852635 -0.52898,-0.98841 -2.34594,-2.370445 -4.03769,-3.071191 -1.69175,-0.700745 -2.90919,-1.774227 -2.70543,-2.385517 0.58307,-1.7492 27.00333,-20.5173425 28.9549,-20.5686727 1.64667,-0.04331 1.75,3.3080482 1.75,56.7578047 v 56.803837 l 3.47803,3.37103 c 3.2872,3.18609 3.57957,3.27915 5.32874,1.69617 2.1857,-1.97803 4.20514,-2.18408 4.16399,-0.42487 -0.025,1.06898 -17.10418,13.62781 -19.71763,14.49896 -0.50087,0.16695 -4.86112,-3.15953 -9.68946,-7.39218 z m 54.44605,0.1039 C 706.34007,126.35731 702.13454,123 701.66409,123 c -0.47044,0 -2.11527,0.89714 -3.65517,1.99365 -2.38489,1.69819 -2.88524,1.77103 -3.37623,0.49153 -0.39482,-1.02887 1.14749,-2.64672 4.89545,-5.13523 L 705,116.71684 V 74.993279 c 0,-40.388426 -0.0648,-41.805984 -2.02609,-44.299312 -1.11434,-1.416662 -2.91434,-2.857673 -4,-3.202246 -1.08565,-0.344573 -1.96234,-1.158672 -1.94821,-1.809109 C 697.05416,24.373395 722.46813,5.952394 725.25,5.2245838 726.90153,4.792499 727,7.9694845 727,61.687202 v 56.920468 l 3.29761,3.19616 c 3.79344,3.67675 4.37281,3.80441 6.89728,1.5198 1.31248,-1.18778 2.16336,-1.36538 2.91939,-0.60935 0.75602,0.75602 -1.85547,3.13911 -8.96005,8.17637 -5.51489,3.91014 -10.39318,7.09166 -10.84065,7.07003 -0.44747,-0.0216 -4.6342,-3.39663 -9.30386,-7.5 z m -390.81277,-21.0741 c 4.38802,-4.69655 5.63672,-9.13466 6.39131,-22.715969 L 327.29225,74 h -5.08103 c -2.79456,0 -6.21376,0.430668 -7.59822,0.957039 -2.74129,1.042236 -5.613,5.686002 -5.613,9.076634 0,3.569829 -2.36133,1.629709 -3.78482,-3.109684 -1.93004,-6.425936 -0.15896,-13.913546 4.35991,-18.432414 C 312.5965,59.470163 320.6293,56 324.60191,56 c 0.78732,0 1.49379,-2.380082 1.93817,-6.529708 0.90832,-8.481678 2.79342,-11.145504 14.76727,-20.867519 5.35108,-4.344739 9.57101,-8.057748 9.37763,-8.25113 -0.19339,-0.193383 -2.9395,0.168119 -6.10248,0.803336 -4.72189,0.948291 -7.7996,0.84697 -17.20093,-0.56627 C 314.61332,18.669341 311.0568,19.181731 306.97274,23.529021 305.69599,24.88806 304.04567,26 303.30536,26 c -2.11709,0 2.12326,-7.474832 7.50302,-13.226229 9.77565,-10.4509585 18.54621,-12.71881492 34.32829,-8.8764736 11.42036,2.7804281 17.3169,2.7140012 23.19385,-0.2612879 8.77607,-4.44301204 4.52143,2.4075131 -7.4055,11.9238165 -5.06485,4.041161 -7.46088,6.83082 -9.58856,11.16378 L 348.5,32.5 348,62.5 c -0.55975,33.584975 -0.45459,33.06421 -8.06525,39.93999 -4.7435,4.28546 -13.01939,8.39191 -18.64944,9.25373 L 317.5,112.27316 Z m 443.83496,-75.488039 -7.17386,-8.127852 5.75812,-5.135344 c 11.02345,-9.831198 9.16559,-9.75166 17.28932,-0.740188 l 7.10603,7.882569 -7.90288,7.124333 -7.90287,7.124333 z"
    />
  </g>
</svg>
